
<svg width="120" height="24" viewBox="0 0 120 24" fill="none" xmlns="http://www.w3.org/2000/svg">
  <path d="M10.4531 18H1.89844V5.4375H5.04688V15.3594H10.4531V18ZM18.7031 18H14.0312L20.5156 5.4375H24L30.5078 18H25.7891L23.3438 12.4688H20.2344L18.7031 18ZM22.3828 10.0703L21.1875 7.71094L19.9922 10.0703H22.3828ZM39.7656 18.2344C38.4062 18.2344 37.2031 17.9297 36.1562 17.3203C35.1094 16.7109 34.2969 15.875 33.7188 14.8125C33.1406 13.7344 32.8516 12.5156 32.8516 11.1562C32.8516 9.79688 33.1406 8.58594 33.7188 7.52344C34.2969 6.46094 35.1094 5.625 36.1562 5.01562C37.2031 4.40625 38.4062 4.10156 39.7656 4.10156C41.125 4.10156 42.3281 4.40625 43.375 5.01562C44.4219 5.625 45.2422 6.46094 45.8359 7.52344C46.4297 8.58594 46.7266 9.79688 46.7266 11.1562C46.7266 12.5156 46.4297 13.7344 45.8359 14.8125C45.2578 15.875 44.4375 16.7109 43.375 17.3203C42.3281 17.9297 41.125 18.2344 39.7656 18.2344ZM39.7656 15.4062C40.6094 15.4062 41.3203 15.0859 41.8984 14.4453C42.4766 13.8047 42.7656 12.6719 42.7656 11.0469C42.7656 9.42188 42.4766 8.28906 41.8984 7.64844C41.3203 7.00781 40.6094 6.6875 39.7656 6.6875C38.9219 6.6875 38.2109 7.00781 37.6328 7.64844C37.0547 8.28906 36.7656 9.42188 36.7656 11.0469C36.7656 12.6719 37.0547 13.8047 37.6328 14.4453C38.2109 15.0859 38.9219 15.4062 39.7656 15.4062ZM57.5469 18.2344C56.1875 18.2344 54.9844 17.9297 53.9375 17.3203C52.8906 16.7109 52.0781 15.875 51.5 14.8125C50.9219 13.7344 50.6328 12.5156 50.6328 11.1562C50.6328 9.79688 50.9219 8.58594 51.5 7.52344C52.0781 6.46094 52.8906 5.625 53.9375 5.01562C54.9844 4.40625 56.1875 4.10156 57.5469 4.10156C58.9062 4.10156 60.1094 4.40625 61.1562 5.01562C62.2031 5.625 63.0234 6.46094 63.6172 7.52344C64.2109 8.58594 64.5078 9.79688 64.5078 11.1562C64.5078 12.5156 64.2109 13.7344 63.6172 14.8125C63.0391 15.875 62.2188 16.7109 61.1562 17.3203C60.1094 17.9297 58.9062 18.2344 57.5469 18.2344ZM57.5469 15.4062C58.3906 15.4062 59.1016 15.0859 59.6797 14.4453C60.2578 13.8047 60.5469 12.6719 60.5469 11.0469C60.5469 9.42188 60.2578 8.28906 59.6797 7.64844C59.1016 7.00781 58.3906 6.6875 57.5469 6.6875C56.7031 6.6875 55.9922 7.00781 55.4141 7.64844C54.8359 8.28906 54.5469 9.42188 54.5469 11.0469C54.5469 12.6719 54.8359 13.8047 55.4141 14.4453C55.9922 15.0859 56.7031 15.4062 57.5469 15.4062ZM71.5625 18V7.875L66.9609 18H63.2812V5.4375H66.5625V15.3047L70.9141 5.4375H74.8438V18H71.5625ZM83.7969 18.2344C82.5781 18.2344 81.5156 17.9922 80.6094 17.5078C79.7031 17.0234 78.9922 16.3438 78.4766 15.4688C77.9766 14.5938 77.7266 13.5781 77.7266 12.4219C77.7266 11.2344 77.9766 10.1953 78.4766 9.30469C78.9922 8.41406 79.7031 7.72656 80.6094 7.24219C81.5156 6.75781 82.5781 6.51562 83.7969 6.51562C85.0156 6.51562 86.0859 6.75781 87.0078 7.24219C87.9297 7.72656 88.6484 8.40625 89.1641 9.28125C89.6797 10.1562 89.9375 11.1797 89.9375 12.3516C89.9375 13.5391 89.6797 14.5781 89.1641 15.4688C88.6484 16.3438 87.9297 17.0234 87.0078 17.5078C86.0859 17.9922 85.0156 18.2344 83.7969 18.2344ZM83.7969 15.5156C84.5938 15.5156 85.2422 15.2266 85.7422 14.6484C86.2422 14.0703 86.4922 13.2812 86.4922 12.2812C86.4922 11.3125 86.2422 10.5391 85.7422 9.96094C85.2422 9.36719 84.5938 9.07031 83.7969 9.07031C83 9.07031 82.3594 9.35938 81.875 9.9375C81.3906 10.5156 81.1484 11.3047 81.1484 12.3047C81.1484 13.2891 81.3906 14.0703 81.875 14.6484C82.3594 15.2266 83 15.5156 83.7969 15.5156ZM97.3281 18.2344C96.1094 18.2344 95.0469 17.9922 94.1406 17.5078C93.2344 17.0234 92.5234 16.3438 92.0078 15.4688C91.5078 14.5938 91.2578 13.5781 91.2578 12.4219C91.2578 11.2344 91.5078 10.1953 92.0078 9.30469C92.5234 8.41406 93.2344 7.72656 94.1406 7.24219C95.0469 6.75781 96.1094 6.51562 97.3281 6.51562C98.5469 6.51562 99.6172 6.75781 100.539 7.24219C101.461 7.72656 102.18 8.40625 102.695 9.28125C103.211 10.1562 103.469 11.1797 103.469 12.3516C103.469 13.5391 103.211 14.5781 102.695 15.4688C102.18 16.3438 101.461 17.0234 100.539 17.5078C99.6172 17.9922 98.5469 18.2344 97.3281 18.2344ZM97.3281 15.5156C98.125 15.5156 98.7734 15.2266 99.2734 14.6484C99.7734 14.0703 100.023 13.2812 100.023 12.2812C100.023 11.3125 99.7734 10.5391 99.2734 9.96094C98.7734 9.36719 98.125 9.07031 97.3281 9.07031C96.5312 9.07031 95.8906 9.35938 95.4062 9.9375C94.9219 10.5156 94.6797 11.3047 94.6797 12.3047C94.6797 13.2891 94.9219 14.0703 95.4062 14.6484C95.8906 15.2266 96.5312 15.5156 97.3281 15.5156ZM110.453 18H107.422V9.28125H104.25V6.75H113.625V9.28125H110.453V18Z" fill="black"/>
</svg>
